<svg width="47" height="90" viewBox="0 0 47 90" fill="none" xmlns="http://www.w3.org/2000/svg">
<path opacity="0.3" d="M45.8637 98.9999H25.3137V33.8999H1.9137V19.9499C8.9137 19.8499 14.7637 18.0999 19.4637 14.6999C24.1637 11.1999 27.0137 6.84991 28.0137 1.6499H45.8637V98.9999Z" fill="white"/>
<path fill-rule="evenodd" clip-rule="evenodd" d="M46.8637 99.9999H24.3137V34.8999H0.913696V18.9641L1.89941 18.95C8.7343 18.8524 14.3714 17.1475 18.8719 13.8938C23.3914 10.5265 26.0844 6.38688 27.0317 1.46105L27.1877 0.649902H46.8637V99.9999ZM19.4637 14.6999C14.7637 18.0999 8.9137 19.8499 1.9137 19.9499V33.8999H25.3137V98.9999H45.8637V1.6499H28.0137C27.0137 6.84991 24.1637 11.1999 19.4637 14.6999Z" fill="white"/>
</svg>
