<svg width="75" height="92" viewBox="0 0 75 92" fill="none" xmlns="http://www.w3.org/2000/svg">
<path opacity="0.3" d="M22.2273 41.2999L2.57733 40.6999C2.07733 38.4999 1.82733 36.2499 1.82733 33.9499C1.82733 24.9499 5.02733 17.2999 11.4273 10.9999C17.8273 4.5999 26.4773 1.3999 37.3773 1.3999C47.9773 1.3999 56.4773 4.4499 62.8773 10.5499C69.2773 16.5499 72.4773 23.9499 72.4773 32.7499C72.4773 45.1499 66.1773 55.1999 53.5773 62.8999L34.8273 74.2999C30.4273 77.0999 27.6273 80.0499 26.4273 83.1499H73.0773V101H1.07733C1.17733 91.8999 2.92733 83.9499 6.32733 77.1499C9.82733 70.3499 15.7273 64.4499 24.0273 59.4499L40.0773 49.8499C47.7773 45.2499 51.6273 39.6499 51.6273 33.0499C51.6273 29.3499 50.3273 26.1999 47.7273 23.5999C45.2273 20.9999 41.6273 19.6999 36.9273 19.6999C31.9273 19.6999 28.0773 21.1999 25.3773 24.1999C22.7773 27.1999 21.4773 31.0999 21.4773 35.8999C21.4773 37.6999 21.7273 39.4999 22.2273 41.2999Z" fill="white"/>
<path fill-rule="evenodd" clip-rule="evenodd" d="M23.5544 42.3409L1.77363 41.6758L1.6022 40.9215C1.08535 38.6474 0.827333 36.323 0.827333 33.9499C0.827333 24.6839 4.13348 16.7779 10.7231 10.29C17.3477 3.66699 26.2716 0.399902 37.3773 0.399902C48.1783 0.399902 56.9427 3.51361 63.5643 9.82318C70.1646 16.0124 73.4773 23.6759 73.4773 32.7499C73.4773 45.5696 66.9296 55.9121 54.0988 63.7532L54.0969 63.7544L35.3556 75.1491C31.7406 77.4508 29.3316 79.7935 28.0056 82.1499H74.0773V102H0.0662842L0.077394 100.989C0.178734 91.7669 1.95307 83.6624 5.43291 76.7027L5.43814 76.6922C9.04303 69.6884 15.0943 63.6638 23.5113 58.5933L23.514 58.5917L39.564 48.9917C47.0837 44.4994 50.6273 39.1761 50.6273 33.0499C50.6273 29.6133 49.4314 26.7182 47.0202 24.307L47.0133 24.3001L47.0065 24.293C44.7475 21.9437 41.4417 20.6999 36.9273 20.6999C32.1419 20.6999 28.5931 22.1259 26.1269 24.862C23.7198 27.6431 22.4773 31.2918 22.4773 35.8999C22.4773 37.6061 22.7141 39.3161 23.1909 41.0323L23.5544 42.3409ZM26.4273 83.1499C26.557 82.8148 26.7055 82.4815 26.8726 82.1499C28.2513 79.4139 30.9029 76.7972 34.8273 74.2999L53.5773 62.8999C66.1773 55.1999 72.4773 45.1499 72.4773 32.7499C72.4773 23.9499 69.2773 16.5499 62.8773 10.5499C56.4773 4.4499 47.9773 1.3999 37.3773 1.3999C26.4773 1.3999 17.8273 4.5999 11.4273 10.9999C5.02733 17.2999 1.82733 24.9499 1.82733 33.9499C1.82733 36.2499 2.07733 38.4999 2.57733 40.6999L22.2273 41.2999C22.134 40.9638 22.0493 40.6278 21.9734 40.2917C21.6427 38.8278 21.4773 37.3638 21.4773 35.8999C21.4773 31.0999 22.7773 27.1999 25.3773 24.1999C28.0773 21.1999 31.9273 19.6999 36.9273 19.6999C41.6273 19.6999 45.2273 20.9999 47.7273 23.5999C50.3273 26.1999 51.6273 29.3499 51.6273 33.0499C51.6273 39.6499 47.7773 45.2499 40.0773 49.8499L24.0273 59.4499C15.7273 64.4499 9.82733 70.3499 6.32733 77.1499C3.05246 83.6997 1.30837 91.3163 1.09508 99.9999C1.08693 100.332 1.08101 100.665 1.07733 101H73.0773V83.1499H26.4273Z" fill="white"/>
</svg>
