<svg width="78" height="91" viewBox="0 0 78 91" fill="none" xmlns="http://www.w3.org/2000/svg">
<path opacity="0.3" d="M30.9379 55.7999L21.7879 41.3999L47.2879 19.4999H4.68789V1.6499H73.5379V18.2999L48.3379 39.2999C56.0379 39.5999 62.6379 42.4999 68.1379 47.9999C73.7379 53.3999 76.5379 60.3999 76.5379 68.9999C76.5379 77.7999 73.1379 85.3999 66.3379 91.7999C59.5379 98.0999 50.4879 101.25 39.1879 101.25C28.2879 101.25 19.4379 98.2499 12.6379 92.2499C5.83789 86.1499 2.13789 78.7999 1.53789 70.1999L21.4879 66.2999C21.6879 71.2999 23.3879 75.3999 26.5879 78.5999C29.8879 81.7999 34.0879 83.3999 39.1879 83.3999C44.1879 83.3999 48.1879 81.9999 51.1879 79.1999C54.1879 76.3999 55.6879 72.8999 55.6879 68.6999C55.6879 64.1999 54.1879 60.6999 51.1879 58.1999C48.2879 55.5999 44.4879 54.2999 39.7879 54.2999C36.6879 54.2999 33.7379 54.7999 30.9379 55.7999Z" fill="white"/>
<path fill-rule="evenodd" clip-rule="evenodd" d="M30.5222 57.0102L20.4795 41.2054L44.5887 20.4999H3.6879V0.649902H74.5379V18.7683L50.8714 38.4904C57.7663 39.2783 63.7661 42.2165 68.8386 47.2864C74.6513 52.8948 77.5379 60.1633 77.5379 68.9999C77.5379 78.094 74.0103 85.9521 67.0233 92.5281L67.0175 92.5335C59.994 99.0405 50.6818 102.25 39.1879 102.25C28.0959 102.25 18.9943 99.1921 11.9763 92.9997L11.9701 92.9943C4.98945 86.7322 1.15956 79.1453 0.54032 70.2695L0.478821 69.388L22.4405 65.0948L22.4871 66.2599C22.6781 71.0346 24.2902 74.8852 27.2895 77.8873C30.381 80.8824 34.3196 82.3999 39.1879 82.3999C43.9929 82.3999 47.7294 81.06 50.5056 78.4689C53.2976 75.863 54.6879 72.6301 54.6879 68.6999C54.6879 64.4462 53.2836 61.248 50.5477 58.9681L50.5338 58.9566L50.5204 58.9445C47.8401 56.5415 44.295 55.2999 39.7879 55.2999C36.7976 55.2999 33.9617 55.7818 31.2742 56.7416L30.5222 57.0102ZM26.5879 78.5999C23.6054 75.6174 21.9259 71.853 21.5495 67.3068C21.522 66.9753 21.5015 66.6397 21.4879 66.2999L1.5379 70.1999C2.1379 78.7999 5.8379 86.1499 12.6379 92.2499C19.4379 98.2499 28.2879 101.25 39.1879 101.25C50.4879 101.25 59.5379 98.0999 66.3379 91.7999C73.1379 85.3999 76.5379 77.7999 76.5379 68.9999C76.5379 60.3999 73.7379 53.3999 68.1379 47.9999C62.9876 42.8496 56.8728 39.9792 49.7934 39.3887C49.3127 39.3486 48.8275 39.319 48.3379 39.2999L73.5379 18.2999V1.6499H4.6879V19.4999H47.2879L21.7879 41.3999L30.9379 55.7999C33.7379 54.7999 36.6879 54.2999 39.7879 54.2999C44.4879 54.2999 48.2879 55.5999 51.1879 58.1999C54.1879 60.6999 55.6879 64.1999 55.6879 68.6999C55.6879 72.8999 54.1879 76.3999 51.1879 79.1999C48.1879 81.9999 44.1879 83.3999 39.1879 83.3999C34.0879 83.3999 29.8879 81.7999 26.5879 78.5999Z" fill="white"/>
</svg>
