<svg width="85" height="91" viewBox="0 0 85 91" fill="none" xmlns="http://www.w3.org/2000/svg">
<path opacity="0.3" d="M1.04903 78.1499V56.5499L41.999 1.6499H67.499V60.4499H83.549V78.1499H67.499V98.9999H47.099V78.1499H1.04903ZM47.099 60.4499V23.2499L19.349 60.4499H47.099Z" fill="white"/>
<path fill-rule="evenodd" clip-rule="evenodd" d="M0.0490265 79.1499V56.218L41.4974 0.649902H68.499V59.4499H84.549V79.1499H68.499V99.9999H46.099V79.1499H0.0490265ZM47.099 78.1499V98.9999H67.499V78.1499H83.549V60.4499H67.499V1.6499H41.999L1.04903 56.5499V78.1499H47.099ZM47.099 23.2499L19.349 60.4499H47.099V23.2499ZM46.099 59.4499V26.2629L21.3426 59.4499H46.099Z" fill="white"/>
</svg>
