<svg class="" width="22" height="22" viewBox="0 0 1229 1024" xmlns="http://www.w3.org/2000/svg" style="display: inline-block; vertical-align: middle;"><path d="M581.893 157.316h-424.544c-18.363-0.001-36.557 3.211-53.765 9.466l-0.494-10.945c0.392-20.604 8.852-40.23 23.563-54.662s34.497-22.514 55.103-22.51h288.941c20.808 0.046 40.749 8.334 55.46 23.049l55.736 55.601zM27.568 225.685c-8.185 11.938-14.703 24.979-19.344 38.763-6.976 20.72-9.557 42.667-7.578 64.44l50.11 550.667c3.552 39.089 21.588 75.441 50.567 101.915s66.806 41.158 106.058 41.178h814.039c39.253-0.020 77.080-14.705 106.059-41.178s47.015-62.826 50.565-101.915l50.108-550.667c1.98-21.773-0.601-43.719-7.578-64.44s-18.193-39.759-32.939-55.902c-14.739-16.143-32.686-29.036-52.695-37.857-20.002-8.821-41.629-13.375-63.488-13.373h-315.433c-40.926-0.582-80.052-17.095-109.031-46.082l-65.136-65.136c-29.499-29.508-69.51-46.090-111.234-46.098h-288.863c-41.727 0-81.745 16.576-111.251 46.082s-46.082 69.524-46.082 111.251l3.144 68.352zM773.816 604.931l-221.706 130.67c-18.815 11.080-42.961-2.335-42.961-24.672v-261.336c0-22.297 24.111-35.746 42.961-24.633l221.706 130.67c4.28 2.481 7.837 6.069 10.308 10.398 2.478 4.329 3.782 9.246 3.782 14.252s-1.304 9.923-3.782 14.253c-2.471 4.329-6.028 7.917-10.308 10.398z" fill="rgb(0, 235, 132)"></path></svg>