<svg width="20" height="20" viewBox="0 0 20 20" fill="none" xmlns="http://www.w3.org/2000/svg">
<circle cx="10" cy="10.0002" r="9.16667" fill="#00EB84"/>
<path d="M15.2917 7.02497C15.2583 6.94997 15.2167 6.89163 15.1667 6.8333C15.1167 6.7833 15.05 6.7333 14.975 6.7083C14.8333 6.64997 14.6667 6.64997 14.525 6.7083C14.45 6.74163 14.3917 6.7833 14.3333 6.8333L8.91668 12.25L6.83334 10.1666C6.77501 10.1166 6.71668 10.075 6.64168 10.0416C6.50001 9.9833 6.34168 9.9833 6.19168 10.0416C6.12501 10.075 6.05834 10.1166 6.00834 10.1666C5.95001 10.225 5.90834 10.2916 5.87501 10.3583C5.85001 10.4333 5.83334 10.5083 5.83334 10.5833C5.83334 10.6583 5.85001 10.7333 5.87501 10.8083C5.90834 10.8833 5.95001 10.9416 6.00001 11L8.50001 13.5C8.55834 13.55 8.61668 13.6 8.69168 13.625C8.76668 13.65 8.84168 13.6666 8.91668 13.6666C8.99168 13.6666 9.06668 13.65 9.14168 13.625C9.20834 13.5916 9.27501 13.55 9.33334 13.4916L15.1667 7.6583C15.225 7.59997 15.2667 7.54163 15.2917 7.46663C15.3167 7.39163 15.3333 7.31663 15.3333 7.24163C15.3333 7.17497 15.3167 7.09997 15.2917 7.02497Z" fill="#383445"/>
</svg>
