<svg width="12" height="16" viewBox="0 0 12 16" fill="none" xmlns="http://www.w3.org/2000/svg">
<path fill-rule="evenodd" clip-rule="evenodd" d="M6 12.5714L12 16V2.28571C12 1.67951 11.7471 1.09812 11.2971 0.66947C10.847 0.240816 10.2365 0 9.6 0H2.4C1.76348 0 1.15303 0.240816 0.702944 0.66947C0.252856 1.09812 0 1.67951 0 2.28571V16L6 12.5714ZM1.2 13.9817L6 11.2389L10.8 13.9817V2.28571C10.8 1.98261 10.6736 1.69192 10.4485 1.47759C10.2235 1.26327 9.91826 1.14286 9.6 1.14286H2.4C2.08174 1.14286 1.77652 1.26327 1.55147 1.47759C1.32643 1.69192 1.2 1.98261 1.2 2.28571V13.9817Z" fill="white"/>
</svg>
