<svg class="" width="22" height="22" viewBox="0 0 1024 1024" xmlns="http://www.w3.org/2000/svg" style="display: inline-block; vertical-align: middle;"><path d="M724.48 636.288c-19.968 23.488-44.523 39.915-77.568 46.229v-101.696c-9.237-3.115-16.875-5.547-24.405-8.235-50.603-18.069-83.243-65.749-82.731-120.832 0.491-54.293 35.157-101.803 86.251-118.187 50.219-16.107 105.493 1.92 135.936 44.608 16.405 22.997 22.507 49.856 24.043 77.355 3.819 68.608-17.536 128.96-61.525 180.757zM434.709 636.288c-19.968 23.488-44.523 39.915-77.568 46.229v-101.696c-9.237-3.115-16.875-5.547-24.405-8.235-50.603-18.069-83.243-65.749-82.731-120.832 0.491-54.293 35.157-101.803 86.251-118.187 50.219-16.107 105.493 1.92 135.936 44.608 16.405 22.997 22.507 49.856 24.043 77.355 3.819 68.608-17.536 128.96-61.525 180.757zM957.376 391.936c-56.555-242.667-293.461-393.6-537.451-337.579-299.584 68.8-424.96 392.171-304.363 633.6 6.507 13.056 7.36 24.576 3.947 38.421-18.581 75.328-36.373 150.763-55.509 230.635 9.749-2.709 16.064-4.181 22.208-6.187 63.019-20.843 126.101-41.515 188.949-62.848 13.44-4.565 24.363-4.693 37.931 2.261 91.989 47.36 189.141 61.44 291.157 42.517 247.787-45.931 410.453-294.827 353.131-540.8z" fill="rgb(0, 235, 132)"></path></svg>