<svg class="wiseup" width="32" height="32" viewBox="0 0 1020 1024" xmlns="http://www.w3.org/2000/svg" style="display: inline-block; vertical-align: middle;"><path d="M356.634 783.89c148.303 197.738 247.172 190.676 331.917 201.269-60.028 24.717-109.462 35.31-176.552 35.31-282.483 0-512-229.517-512-512s229.517-512 512-512c275.421 0 501.407 218.924 508.469 490.814-81.214-10.593-127.117-84.745-229.517-176.552-95.338-84.745-247.172-60.028-247.172-60.028s151.834 162.428 282.483 296.607c45.903 45.903 88.276 67.090 127.117 67.090 14.124 0 31.779-3.531 45.903-10.593-17.655 35.31-38.841 74.152-77.683 81.214-52.966 10.593-116.524-28.248-204.8-120.055 0 0-77.683-84.745-180.083-190.676-116.524-123.586-278.952-74.152-278.952-70.621 0 0 88.276 81.214 222.455 233.048l98.869 112.993c102.4 120.055 194.207 173.021 282.483 165.959 14.124 0 28.248-3.531 42.372-7.062-91.807 112.993-208.331 134.179-391.945-74.152-49.434-56.497-148.303-180.083-162.428-194.207-105.931-127.117-243.641-91.807-243.641-91.807 28.248 49.434 63.559 84.745 250.703 335.448z" fill="rgb(255, 255, 255)" style="fill: rgb(0, 235, 132);"></path></svg>