<svg width="38" height="44" viewBox="0 0 38 44" fill="none" xmlns="http://www.w3.org/2000/svg">
<g clip-path="url(#clip0)">
<path opacity="0.8" d="M36.9001 6.09961L18.9001 0.599609C18.8001 0.599609 18.8001 0.599609 18.8001 0.599609L0.800098 6.09961C0.700098 6.19961 0.600098 6.29961 0.600098 6.39961V26.5996C0.600098 30.3996 3.4001 33.9996 7.3001 37.0996C11.1001 40.0996 15.7001 42.3996 18.8001 43.3996C18.9001 43.3996 18.9001 43.3996 19.0001 43.3996C22.1001 42.3996 26.7001 40.0996 30.5001 37.0996C34.3001 33.9996 37.1001 30.3996 37.1001 26.5996V6.39961C37.1001 6.29961 37.0001 6.19961 36.9001 6.09961Z" fill="#4F4964"/>
<path opacity="0.8" d="M18.9 44C18.8 44 18.7 44 18.6 43.9C15.8 43 11 40.8 6.9 37.5C3.7 35 0 31.1 0 26.6V6.4C0 6 0.2 5.7 0.6 5.5L18.6 0C18.8 0 19 0 19.1 0.1L37.1 5.6C37.5 5.7 37.7 6.1 37.7 6.5V26.7C37.7 31.2 34 35.2 30.8 37.6C26.7 40.9 21.9 43.1 19.1 44C19 44 18.9 44 18.9 44ZM1.2 6.7V26.6C1.2 30.6 4.7 34.3 7.6 36.6C11.6 39.7 16.1 41.9 18.9 42.8C21.7 41.9 26.2 39.8 30.2 36.6C33.2 34.3 36.6 30.6 36.6 26.6V6.7L18.9 1.3L1.2 6.7Z" fill="#706982"/>
<path d="M19.0002 14.8005L20.6002 18.1005C20.7002 18.2005 20.7002 18.2005 20.8002 18.2005L24.2002 18.8005C24.4002 18.8005 24.5002 19.1005 24.3002 19.2005L21.8002 21.8005C21.7002 21.9005 21.7002 21.9005 21.7002 22.0005L22.3002 25.6005C22.3002 25.8005 22.1002 25.9005 22.0002 25.9005L18.9002 24.0005C18.8002 23.9005 18.8002 23.9005 18.7002 24.0005L15.7002 25.8005C15.5002 25.9005 15.3002 25.7005 15.4002 25.5005L16.0002 21.9005C16.0002 21.8005 16.0002 21.8005 15.9002 21.7005L13.4002 19.1005C13.3002 19.0005 13.3002 18.7005 13.5002 18.7005L16.9002 18.1005C17.0002 18.1005 17.0002 18.0005 17.1002 18.0005L18.7002 14.7005C18.7002 14.6005 19.0002 14.6005 19.0002 14.8005Z" fill="#9B96A6"/>
</g>
<defs>
<clipPath id="clip0">
<rect width="37.7" height="44" fill="white"/>
</clipPath>
</defs>
</svg>
