<svg class="" width="25" height="25" viewBox="0 0 1024 1024" xmlns="http://www.w3.org/2000/svg" style="display: inline-block; vertical-align: middle;"><path d="M1024 512c0 282.77-229.23 512-512 512s-512-229.23-512-512c0-282.77 229.23-512 512-512s512 229.23 512 512z" fill="rgb(0, 235, 132)"></path><path d="M661.457 538.419l-207.846 140.002c-17.638 11.87-40.277-2.5-40.277-26.428v-280.007c0-23.89 22.605-38.3 40.277-26.393l207.846 140.004c4.011 2.658 7.347 6.502 9.668 11.14s3.541 9.907 3.541 15.27c0 5.363-1.22 10.633-3.541 15.27s-5.658 8.482-9.668 11.14z" fill="rgb(41, 0, 79)"></path></svg>