<svg width="19" height="25" viewBox="0 0 19 25" fill="none" xmlns="http://www.w3.org/2000/svg">
<path d="M5.2207 8.09375H14.5937V9.65625H5.2207V8.09375Z" fill="#29004F"/>
<path d="M5.2207 12.9512H14.5937V14.5137H5.2207V12.9512Z" fill="#29004F"/>
<path d="M4.9408 17.1875H9.62733V18.75H4.9408V17.1875Z" fill="#29004F"/>
<path d="M16.6568 1.5625H13.3089C12.7941 0.636484 11.3897 0 9.62705 0C7.86437 0 6.46001 0.636484 5.94511 1.5625H2.5973C1.30514 1.5625 0.254028 2.61384 0.254028 3.90626V22.6562C0.254028 23.9487 1.30514 25 2.5973 25H16.6569C17.949 25 19.0001 23.9487 19.0001 22.6562V3.90626C19.0001 2.61384 17.949 1.5625 16.6568 1.5625ZM17.4379 22.6562C17.4379 23.0872 17.0878 23.4374 16.6568 23.4374H2.5973C2.16635 23.4374 1.81621 23.0873 1.81621 22.6562V3.90626C1.81621 3.47523 2.1663 3.12501 2.5973 3.12501H5.72165V3.90626C5.72165 4.33808 6.07101 4.68751 6.50274 4.68751H12.7514C13.1831 4.68751 13.5325 4.33808 13.5325 3.90626V3.12501H16.6569C17.0878 3.12501 17.4379 3.47517 17.4379 3.90626L17.4379 22.6562Z" fill="#29004F"/>
</svg>