<svg class="" width="22" height="22" viewBox="0 0 683 1024" xmlns="http://www.w3.org/2000/svg" style="display: inline-block; vertical-align: middle;"><path d="M371.849 964.429c157.571 0 285.307-127.735 285.307-285.308s-127.735-285.309-285.307-285.309c-157.571 0-285.308 127.736-285.308 285.309s127.737 285.308 285.308 285.308zM402.455 605.295l66.502 10.133c9.451 1.455 17.276 8.107 20.233 17.199 3.119 9.212 0.789 19.388-6.020 26.33l-48.627 49.741 11.477 70.272c1.66 9.762-2.441 19.605-10.539 25.301-7.842 5.568-18.184 6.131-26.584 1.455l-59.075-32.619-59.106 32.619c-8.405 4.659-18.736 4.096-26.582-1.455-8.1-5.696-12.201-15.539-10.539-25.301l11.477-70.272-48.63-49.741c-6.808-6.942-9.135-17.118-6.020-26.33 2.973-9.122 10.842-15.778 20.327-17.199l66.503-10.133 29.709-63.266c4.127-8.922 13.062-14.635 22.892-14.635s18.766 5.713 22.892 14.635l29.709 63.266z" fill="rgb(0, 235, 132)" style=""></path><path d="M468.958 615.428l0.649-4.22h-0.004l-0.644 4.22zM402.455 605.295l-3.862 1.813 0.968 2.061 2.252 0.341 0.643-4.215zM489.19 632.627l-4.058 1.318 0.017 0.047 4.041-1.365zM483.17 658.957l-3.046-2.987-0.004 0.004 3.051 2.982zM434.543 708.698l-3.051-2.982-1.51 1.545 0.35 2.125 4.211-0.687zM446.020 778.97l-4.211 0.687 0.004 0.030 4.207-0.717zM435.482 804.271l-2.453-3.49-0.017 0.009 2.47 3.482zM408.898 805.726l2.077-3.729-0.015-0.009-2.063 3.738zM349.823 773.107l2.063-3.738-2.062-1.139-2.062 1.139 2.062 3.738zM290.717 805.726l-2.062-3.738-0.008 0.004 2.069 3.733zM264.134 804.271l2.464-3.486-0.011-0.004-2.453 3.49zM253.595 778.97l4.206 0.717 0.005-0.030-4.211-0.687zM265.072 708.698l4.211 0.687 0.347-2.125-1.507-1.545-3.051 2.982zM216.442 658.957l3.051-2.982-0.005-0.004-3.046 2.987zM210.423 632.627l4.042 1.365 0.015-0.043-4.056-1.323zM230.75 615.428l0.633 4.22 0.010-0.004-0.643-4.215zM297.253 605.295l0.643 4.215 2.251-0.341 0.968-2.061-3.862-1.813zM326.962 542.029l3.862 1.813 0.011-0.021-3.873-1.792zM372.746 542.029l-3.873 1.792 0.011 0.021 3.862-1.813zM652.89 679.121c0 155.213-125.824 281.041-281.040 281.041v8.533c159.927 0 289.574-129.647 289.574-289.574h-8.533zM371.849 398.079c155.216 0 281.040 125.825 281.040 281.042h8.533c0-159.927-129.647-289.575-289.574-289.575v8.533zM90.808 679.121c0-155.217 125.827-281.042 281.041-281.042v-8.533c-159.927 0-289.574 129.648-289.574 289.575h8.533zM371.849 960.162c-155.215 0-281.041-125.828-281.041-281.041h-8.533c0 159.927 129.647 289.574 289.574 289.574v-8.533zM469.602 611.209l-66.504-10.133-1.285 8.435 66.501 10.133 1.289-8.435zM493.248 631.309c-3.456-10.628-12.599-18.398-23.642-20.1l-1.297 8.435c7.859 1.212 14.366 6.741 16.823 14.302l8.115-2.637zM486.217 661.948c7.936-8.090 10.65-19.955 7.019-30.69l-8.085 2.735c2.598 7.689 0.657 16.183-5.026 21.978l6.093 5.978zM437.594 711.68l48.627-49.737-6.101-5.969-48.627 49.741 6.101 5.965zM450.231 778.283l-11.477-70.272-8.422 1.374 11.477 70.272 8.422-1.374zM437.935 807.761c9.446-6.643 14.229-18.125 12.292-29.508l-8.414 1.434c1.387 8.137-2.035 16.346-8.785 21.094l4.907 6.98zM406.821 809.451c9.837 5.483 21.949 4.817 31.131-1.702l-4.941-6.959c-6.5 4.617-15.074 5.086-22.036 1.207l-4.154 7.454zM347.761 776.841l59.075 32.619 4.125-7.471-59.075-32.619-4.125 7.471zM292.778 809.459l59.107-32.619-4.123-7.471-59.106 32.619 4.123 7.471zM261.67 807.753c9.184 6.498 21.277 7.159 31.116 1.702l-4.139-7.462c-6.971 3.866-15.541 3.396-22.049-1.207l-4.928 6.967zM249.389 778.253c-1.938 11.383 2.845 22.865 12.292 29.508l4.907-6.98c-6.753-4.749-10.172-12.958-8.786-21.094l-8.413-1.434zM260.861 708.011l-11.477 70.272 8.422 1.374 11.477-70.272-8.422-1.374zM213.392 661.943l48.63 49.737 6.102-5.965-48.63-49.741-6.102 5.969zM206.381 631.258c-3.631 10.735-0.919 22.601 7.016 30.69l6.092-5.978c-5.682-5.794-7.625-14.289-5.025-21.978l-8.083-2.735zM230.117 611.209c-11.084 1.66-20.278 9.442-23.751 20.096l8.113 2.645c2.472-7.586 9.015-13.12 16.904-14.302l-1.265-8.439zM296.61 601.075l-66.502 10.133 1.286 8.435 66.502-10.133-1.286-8.435zM323.1 540.215l-29.71 63.266 7.724 3.627 29.71-63.266-7.724-3.627zM349.854 523.127c-11.493 0-21.94 6.677-26.764 17.109l7.745 3.584c3.428-7.415 10.852-12.16 19.019-12.16v-8.533zM376.619 540.237c-4.825-10.432-15.271-17.109-26.765-17.109v8.533c8.168 0 15.591 4.745 19.020 12.16l7.745-3.584zM406.318 603.482l-29.71-63.266-7.724 3.627 29.71 63.266 7.724-3.627z" fill="rgb(229, 229, 229)" style=""></path><path d="M554.317 47.616l0.004-0.001-0.077-0.111c-3.755-5.513-9.924-8.896-16.593-9.102v-0.002l-375.555 0.003c-6.639 0.228-12.771 3.611-16.503 9.107l-0.002-0.001-0.068 0.107-99.083 155.7c-0.001 0.001-0.002 0.003-0.003 0.004-10.46 16.341-10.732 37.204-0.702 53.813 0.001 0.003 0.003 0.005 0.005 0.008l115.265 192.268c-98.973 79.59-137.523 212.868-95.988 333.175 41.945 121.498 156.331 203.017 284.863 203.017 128.531 0 242.92-81.519 284.861-203.017 41.536-120.307 2.987-253.585-95.983-333.175l115.341-192.237c0-0.003 0.004-0.006 0.004-0.008 10.031-16.608 9.758-37.472-0.704-53.812 0-0.001 0-0.003 0-0.004l-99.085-155.73zM79.957 224.768l0.66-1.044v-0.072l81.774-128.548 169.514 260.753-17.632 28.771c-42.753 5.11-83.889 19.395-120.596 41.868l-113.879-189.834c-0.001-0.002-0.002-0.004-0.003-0.006-2.187-3.677-2.124-8.271 0.163-11.887zM611.439 683.772c-0.004 144.452-117.107 261.551-261.557 261.551-144.453 0-261.556-117.103-261.556-261.555s117.1-261.553 261.551-261.556c144.39 0.161 261.399 117.172 261.562 261.56zM501.995 78.207l-90.564 147.832h-116.416l-96.091-147.832h303.072zM320.887 265.846h66.159l-32.11 52.398-34.049-52.398zM619.972 236.634l-113.886 189.849c-43.52-26.585-93.1-41.599-144.022-43.638l175.792-286.964 81.958 128.803c2.308 3.631 2.372 8.256 0.158 11.949 0 0 0 0 0 0.001z" fill="rgb(0, 235, 132)" stroke="rgb(0, 235, 132)" stroke-linejoin="miter" stroke-linecap="butt" stroke-miterlimit="4" stroke-width="8.533333333333333"></path></svg>